<svg width="1294" height="955" viewBox="0 0 1294 955" fill="none" xmlns="http://www.w3.org/2000/svg">
  <rect width="1294" height="955" fill="#eef3f9"/>
  <g stroke="#d3dde9" stroke-width="24" stroke-linecap="round">
    <path d="M0 145C185 166 287 158 417 97C504 56 583 43 702 54C829 66 967 45 1294 10"/>
    <path d="M0 816C217 836 334 793 438 690C527 602 615 561 742 561C917 561 1019 513 1294 370"/>
    <path d="M563 0C560 116 552 207 542 274C525 394 503 488 493 608C484 727 489 836 515 955"/>
    <path d="M632 0C617 130 612 249 621 356C632 492 669 596 694 715C711 794 714 875 704 955"/>
    <path d="M915 0C874 137 841 257 815 362C779 507 785 612 842 715C890 803 935 863 1014 955"/>
    <path d="M1115 0C1086 113 1062 212 1044 297C1012 443 1040 571 1131 681C1185 746 1236 813 1294 898"/>
    <path d="M22 390C168 420 275 408 345 354C416 300 454 239 513 236C571 233 633 287 707 327C813 383 918 370 1044 296C1111 256 1183 223 1294 193"/>
    <path d="M0 594C147 601 259 624 335 663C421 707 499 732 575 712C657 691 714 624 803 608C896 591 999 637 1095 691C1163 729 1226 752 1294 757"/>
  </g>
  <g fill="#ffffff" stroke="#d8e1ec" stroke-width="4">
    <rect x="64" y="45" width="138" height="98" rx="8"/>
    <rect x="226" y="45" width="118" height="80" rx="8"/>
    <rect x="716" y="92" width="116" height="88" rx="8"/>
    <rect x="955" y="88" width="96" height="84" rx="8"/>
    <rect x="1094" y="94" width="118" height="98" rx="8"/>
    <rect x="89" y="238" width="134" height="92" rx="8"/>
    <rect x="287" y="205" width="103" height="92" rx="8"/>
    <rect x="708" y="252" width="94" height="74" rx="8"/>
    <rect x="858" y="225" width="118" height="92" rx="8"/>
    <rect x="1071" y="270" width="100" height="86" rx="8"/>
    <rect x="67" y="668" width="148" height="104" rx="8"/>
    <rect x="259" y="735" width="116" height="94" rx="8"/>
    <rect x="750" y="727" width="115" height="94" rx="8"/>
    <rect x="898" y="777" width="108" height="84" rx="8"/>
    <rect x="1088" y="789" width="114" height="92" rx="8"/>
    <rect x="682" y="402" width="83" height="66" rx="8"/>
    <rect x="753" y="458" width="103" height="78" rx="8"/>
    <rect x="580" y="489" width="78" height="68" rx="8"/>
    <rect x="506" y="650" width="89" height="75" rx="8"/>
  </g>
  <g font-family="Arial, 'Noto Kufi Arabic', sans-serif">
    <text x="548" y="352" fill="#475569" font-size="30" font-weight="800" transform="rotate(-90 548 352)">Army St</text>
    <text x="618" y="340" fill="#475569" font-size="30" font-weight="800" transform="rotate(-90 618 340)">Army St</text>
    <text x="403" y="333" fill="#2563eb" font-size="27">Safeway</text>
    <text x="758" y="416" fill="#2563eb" font-size="27">Crispy Chicken</text>
    <text x="760" y="448" fill="#2563eb" font-size="24">Autostrad Zarqa</text>
    <text x="868" y="563" fill="#dc2626" font-size="28" font-weight="700">Miss gym</text>
    <text x="930" y="103" fill="#059669" font-size="24">Fitness center</text>
    <text x="924" y="76" fill="#059669" font-size="22">جال تاور</text>
    <text x="1038" y="402" fill="#64748b" font-size="23">مسجد حمزة ابو حنيفة</text>
    <text x="846" y="703" fill="#64748b" font-size="22">منزل سامي العويضات</text>
  </g>
  <g>
    <circle cx="830" cy="557" r="46" fill="#ef4444" filter="url(#shadow)"/>
    <path d="M830 585C830 585 854 560 854 540C854 527 843 516 830 516C817 516 806 527 806 540C806 560 830 585 830 585Z" fill="#dc2626"/>
    <circle cx="830" cy="540" r="10" fill="#7f1d1d"/>
  </g>
  <g>
    <circle cx="747" cy="336" r="21" fill="#f97316"/>
    <path d="M739 325h16v20h-16z" fill="#fff" opacity=".9"/>
    <circle cx="1211" cy="96" r="22" fill="#10b981"/>
    <circle cx="1211" cy="96" r="10" fill="#fff"/>
    <circle cx="472" cy="354" r="21" fill="#0ea5e9"/>
    <path d="M462 350h18v14h-18z" fill="#fff"/>
    <circle cx="713" cy="737" r="21" fill="#f97316"/>
    <path d="M704 730h18v14h-18z" fill="#fff"/>
  </g>
  <defs>
    <filter id="shadow" x="754" y="481" width="152" height="152" filterUnits="userSpaceOnUse">
      <feDropShadow dx="0" dy="12" stdDeviation="14" flood-color="#991b1b" flood-opacity=".3"/>
    </filter>
  </defs>
</svg>
